<svg width="112" height="48" viewBox="0 0 112 48" fill="none" xmlns="http://www.w3.org/2000/svg">
<path fill-rule="evenodd" clip-rule="evenodd" d="M40.1588 3.91006C38.8729 3.42751 36.8765 3.47731 35.158 4.03465C34.6256 3.77852 34.0616 4.1733 33.9645 5.18916C33.9645 5.47032 34.9971 5.45318 35.9683 5.29403C40.2473 4.59296 43.1045 7.86298 41.9223 12.1084C41.5108 13.5857 41.5301 13.7762 42.1355 14.2265L43.3101 14.2677L43.2164 13.715C44.97 9.47074 43.6441 5.21787 40.1588 3.91006Z" fill="#F16323"/>
<path d="M14.2675 8.52204C18.215 4.64995 28.5349 3.91684 31.0726 4.2552C29.832 3.36009 27.3052 2.47511 27.3052 2.47511C25.4993 0.669227 22.5714 0.669227 20.7655 2.47511L14.2675 8.52204Z" fill="#346798"/>
<path d="M31.411 4.65714C31.5802 5.33386 30.1598 10.0709 29.3512 10.5506C28.7924 10.4808 28.1462 10.4459 27.4128 10.4459C26.7142 10.4459 25.8411 10.5157 24.7933 10.6554C23.7804 10.7951 22.7151 11.0221 21.5975 11.3365C20.5148 11.6159 19.6241 12.0699 18.9256 12.6986C18.2271 13.3273 17.8778 14.0957 17.8778 15.0038C17.8778 15.877 18.4017 16.6628 19.4495 17.3613C20.5322 18.0249 21.8245 18.6536 23.3264 19.2474C24.8282 19.8062 26.3301 20.4523 27.8319 21.1858C29.3687 21.9193 30.661 23.002 31.7088 24.434C32.7915 25.8311 33.3328 27.525 33.3328 29.5158C33.3328 33.0434 31.6389 36.0471 28.251 38.5269C25.0825 40.8373 21.1186 42.056 16.3595 42.1831L20.8219 46.6456C22.6278 48.4515 25.5557 48.4515 27.3616 46.6456L46.3426 27.6646C48.1485 25.8587 48.1485 22.9308 46.3426 21.1249L31.411 4.65714Z" fill="#346798"/>
<path d="M2.59513 18.9819C0.789252 20.7878 0.789253 23.7157 2.59513 25.5216L8.79742 34.3199L10.0424 32.9688C10.0557 30.1417 10.1247 28.4161 10.2496 27.7919C10.3544 27.4776 10.9656 27.0934 12.0832 26.6393C13.2009 26.1853 14.2836 25.9582 15.3314 25.9582C15.3314 30.0796 15.768 32.5768 16.6412 33.45C16.9904 33.7993 17.654 33.9739 18.632 33.9739C20.8673 33.9739 22.8057 33.3452 24.4473 32.0879C26.1238 30.8305 26.962 29.3461 26.962 27.6347C26.962 26.4821 26.4206 25.4693 25.3379 24.5961C24.2552 23.7229 22.928 22.972 21.3563 22.3433C19.8195 21.6797 18.2827 20.9987 16.7459 20.3001C15.2092 19.5667 13.8994 18.5712 12.8167 17.3139C11.734 16.0565 11.1926 14.5721 11.1926 12.8607C11.1926 11.6252 11.5494 10.443 12.2629 9.31412L2.59513 18.9819Z" fill="#F16323"/>
<path d="M15.5273 7.40135C15.6002 7.34956 15.674 7.2979 15.7487 7.24639C18.8222 5.11586 23.2579 4.0506 29.0557 4.0506C29.9058 4.0506 30.5246 4.0846 30.9121 4.1526L28.114 1.35441C26.3081 -0.45147 23.3802 -0.45147 21.5743 1.35441L15.5273 7.40135Z" fill="url(#paint0_linear_1_277)"/>
<path d="M31.4036 4.64402C31.4101 4.76628 31.4133 4.91774 31.4133 5.0984C31.4133 5.48259 31.2911 6.25098 31.0466 7.40356C30.8021 8.55614 30.4877 9.34199 30.1035 9.76111C29.5447 9.69126 28.8986 9.65633 28.1651 9.65633C27.4666 9.65633 26.5934 9.72618 25.5456 9.86589C24.5327 10.0056 23.4675 10.2326 22.3498 10.547C21.2671 10.8264 20.3765 11.2804 19.6779 11.9091C18.9794 12.5378 18.6301 13.3062 18.6301 14.2143C18.6301 15.0874 19.154 15.8733 20.2018 16.5718C21.2846 17.2354 22.5768 17.8641 24.0787 18.4579C25.5805 19.0167 27.0824 19.6628 28.5842 20.3963C30.121 21.1297 31.4133 22.2125 32.4611 23.6445C33.5438 25.0415 34.0852 26.7355 34.0852 28.7263C34.0852 32.2539 32.3912 35.2576 29.0034 37.7374C25.8348 40.0478 21.871 41.2665 17.1118 41.3936L21.5743 45.8561C23.3802 47.662 26.3081 47.662 28.114 45.8561L47.0949 26.8751C48.9008 25.0692 48.9008 22.1413 47.0949 20.3354L31.4036 4.64402Z" fill="url(#paint1_linear_1_277)"/>
<path d="M1.35441 20.3355C-0.45147 22.1414 -0.45147 25.0693 1.35441 26.8752L8.80167 34.3225C8.81496 31.4953 8.88403 29.7697 9.00886 29.1455C9.11364 28.8312 9.72486 28.447 10.8425 27.993C11.9602 27.5389 13.0429 27.3119 14.0907 27.3119C14.0907 31.4332 14.5273 33.9305 15.4004 34.8037C15.7497 35.1529 16.4133 35.3276 17.3913 35.3276C19.6266 35.3276 21.565 34.6989 23.2066 33.4415C24.883 32.1842 25.7213 30.6998 25.7213 28.9884C25.7213 27.8358 25.1799 26.8229 24.0972 25.9497C23.0145 25.0766 21.6872 24.3256 20.1155 23.697C18.5788 23.0334 17.042 22.3523 15.5052 21.6538C13.9684 20.9203 12.6587 19.9249 11.576 18.6675C10.4932 17.4102 9.95188 15.9258 9.95188 14.2144C9.95188 12.9789 10.3086 11.7967 11.0222 10.6678L1.35441 20.3355Z" fill="url(#paint2_linear_1_277)"/>
<path fill-rule="evenodd" clip-rule="evenodd" d="M40.6679 3.45889C39.3819 2.97635 37.3856 3.02615 35.6671 3.58348C34.2237 4.05158 34.0019 4.26639 34.4735 4.738C34.6952 4.95964 35.5062 5.00202 36.4773 4.84286C40.7563 4.1418 43.6135 7.41181 42.4313 11.6573C42.0198 13.1346 42.0392 13.325 42.6445 13.7753L43.3097 14.2702L43.7254 13.2639C45.4791 9.01958 44.1531 4.7667 40.6679 3.45889Z" fill="url(#paint3_linear_1_277)"/>
<path d="M62.9324 22.1368H62.3436C62.2093 21.4758 62.057 20.9929 61.8865 20.6882C61.7161 20.3835 61.4553 20.1459 61.1041 19.9755C60.7581 19.7999 60.3681 19.7121 59.9343 19.7121C59.3197 19.7121 58.8291 19.8825 58.4624 20.2234C58.1009 20.5642 57.9201 20.9774 57.9201 21.4629C57.9201 21.8915 58.0699 22.266 58.3694 22.5862C58.6638 22.9064 59.3817 23.3118 60.5231 23.8024C61.6696 24.2931 62.4495 24.7992 62.8626 25.3208C63.2706 25.8476 63.4746 26.439 63.4746 27.0949C63.4746 27.6836 63.3197 28.2311 63.0098 28.7372C62.7051 29.2433 62.2429 29.6488 61.6231 29.9535C61.0085 30.253 60.3449 30.4028 59.6322 30.4028C59.1467 30.4028 58.6587 30.3563 58.168 30.2634C57.6825 30.1704 57.0989 30.0103 56.4172 29.783C56.4895 29.0548 56.5257 28.0891 56.5257 26.8857H57.1222C57.2926 27.6604 57.4682 28.2027 57.649 28.5126C57.8349 28.8224 58.1138 29.0781 58.4856 29.2795C58.8575 29.4758 59.2655 29.5739 59.7096 29.5739C60.3191 29.5739 60.8536 29.4034 61.3133 29.0626C61.7729 28.7217 62.0027 28.244 62.0027 27.6294C62.0027 27.1284 61.8375 26.6843 61.5069 26.2969C61.1712 25.9148 60.443 25.4835 59.3223 25.0032C58.2067 24.5177 57.4605 24.0529 57.0834 23.6088C56.7064 23.1698 56.5179 22.6456 56.5179 22.0361C56.5179 21.5042 56.6703 20.9981 56.975 20.5177C57.2797 20.0323 57.7264 19.6501 58.3152 19.3712C58.9091 19.0871 59.5237 18.9451 60.159 18.9451C60.9233 18.9451 61.8478 19.1285 62.9324 19.4952C62.9065 20.2492 62.8936 20.7037 62.8936 20.8586C62.8936 21.1736 62.9065 21.5997 62.9324 22.1368ZM64.5127 20.2079V19.7585C65.1945 19.5571 65.698 19.3919 66.0234 19.2627C66.3487 19.1336 66.6741 18.9735 66.9995 18.7824L67.1932 18.8986C67.1467 19.3066 67.1131 19.8438 67.0925 20.51C67.046 21.8889 67.0227 22.8392 67.0227 23.3609C67.0227 23.5106 67.0253 23.7663 67.0305 24.1278L68.0453 23.1439C68.2416 22.9787 68.4456 22.8573 68.6573 22.7798C68.9517 22.6765 69.259 22.6249 69.5792 22.6249C70.1731 22.6249 70.6457 22.7747 70.9969 23.0742C71.3481 23.3738 71.5547 23.7895 71.6166 24.3215C71.6528 24.6262 71.6709 26.0645 71.6709 28.6365C71.6709 29.0342 71.7096 29.2795 71.7871 29.3725C71.8697 29.4654 72.1589 29.5687 72.6547 29.6823C72.7115 29.6927 72.7916 29.7107 72.8949 29.7366V30.1704C71.9704 30.1136 71.3145 30.0852 70.9272 30.0852C70.421 30.0852 69.8271 30.1136 69.1454 30.1704V29.7366L70.0828 29.4499C70.1396 29.4241 70.1886 29.3828 70.2299 29.326C70.2764 29.2692 70.31 29.1762 70.3307 29.0471C70.3513 28.949 70.3642 28.6701 70.3694 28.2104L70.4236 25.9793C70.4236 25.2563 70.3771 24.7734 70.2842 24.5306C70.1964 24.2827 70.0389 24.0839 69.8116 23.9341C69.5895 23.7792 69.3339 23.7017 69.0447 23.7017C68.6573 23.7017 68.2932 23.8179 67.9524 24.0503C67.6115 24.2776 67.3739 24.5668 67.2396 24.918C67.1105 25.264 67.046 25.8579 67.046 26.6998C67.046 27.867 67.0692 28.6158 67.1157 28.9464C67.1467 29.1685 67.1957 29.3105 67.2629 29.3725C67.3352 29.4344 67.6089 29.53 68.0841 29.6591C68.1409 29.6746 68.2287 29.7004 68.3475 29.7366V30.1704C67.5883 30.1136 66.9633 30.0852 66.4727 30.0852C65.9666 30.0852 65.3442 30.1136 64.6057 30.1704V29.7366C64.7142 29.7056 64.7968 29.6823 64.8536 29.6668C65.3184 29.5429 65.5818 29.4473 65.6438 29.3802C65.7109 29.3131 65.7548 29.0832 65.7755 28.6907C65.8116 28.0452 65.8297 26.7902 65.8297 24.9257C65.8297 22.0594 65.7936 20.5436 65.7212 20.3783C65.6489 20.213 65.494 20.1304 65.2564 20.1304C65.1067 20.1304 64.8588 20.1562 64.5127 20.2079ZM73.6541 26.5526C73.6541 25.3028 74.0079 24.3137 74.7154 23.5855C75.423 22.8573 76.3526 22.4932 77.5043 22.4932C78.594 22.4932 79.4565 22.8212 80.0918 23.4771C80.7322 24.133 81.0524 25.0497 81.0524 26.2272C81.0524 27.4977 80.6934 28.5048 79.9756 29.2485C79.2628 29.987 78.3384 30.3563 77.2022 30.3563C76.1021 30.3563 75.2345 30.0258 74.5992 29.3647C73.9691 28.7036 73.6541 27.7663 73.6541 26.5526ZM75.1415 25.8786C75.1415 26.7256 75.1957 27.3505 75.3042 27.7534C75.4746 28.4041 75.7432 28.8947 76.1099 29.2253C76.4817 29.5506 76.9129 29.7133 77.4036 29.7133C78.0388 29.7133 78.5605 29.4732 78.9685 28.9929C79.3765 28.5074 79.5805 27.7301 79.5805 26.661C79.5805 25.4629 79.3481 24.5771 78.8832 24.0039C78.4236 23.4254 77.8813 23.1362 77.2564 23.1362C76.6366 23.1362 76.1279 23.3634 75.7303 23.8179C75.3377 24.2672 75.1415 24.9541 75.1415 25.8786ZM81.7573 23.9961V23.5623C82.8264 23.2524 83.6373 22.927 84.1899 22.5862L84.4455 22.7411C84.3732 23.1904 84.3267 23.6836 84.3061 24.2208C84.962 23.4719 85.4552 22.9968 85.7857 22.7953C86.0336 22.6456 86.3538 22.5707 86.7464 22.5707C87.5675 22.5707 88.2389 22.8573 88.7605 23.4306C89.2873 23.9987 89.5507 24.8095 89.5507 25.8631C89.5507 26.7153 89.3751 27.4667 89.0239 28.1175C88.6728 28.763 88.1718 29.2898 87.521 29.6978C86.8755 30.1058 86.2557 30.3098 85.6618 30.3098C85.4707 30.3098 85.2589 30.2814 85.0265 30.2246C84.7993 30.1678 84.554 30.0852 84.2906 29.9767C84.3061 31.3505 84.3293 32.1588 84.3603 32.4015C84.381 32.5358 84.43 32.6339 84.5075 32.6959C84.585 32.763 84.8819 32.8586 85.3984 32.9825C85.4707 32.998 85.5792 33.0264 85.7238 33.0677V33.4938C84.9232 33.437 84.2957 33.4086 83.8413 33.4086C83.4746 33.4086 82.7644 33.437 81.7109 33.4938V33.0677L82.0827 32.9748C82.5269 32.8766 82.7954 32.7759 82.8884 32.6726C82.9814 32.5693 83.0356 32.3628 83.0511 32.0529C83.0614 31.8463 83.0666 30.6533 83.0666 28.4738L83.0433 25.2589L83.0511 25.0032C83.0511 24.4867 83.0123 24.1665 82.9349 24.0426C82.8884 23.9651 82.7954 23.9264 82.656 23.9264C82.5062 23.9264 82.2067 23.9496 81.7573 23.9961ZM84.2673 28.7605C84.5514 29.0084 84.8406 29.1969 85.135 29.326C85.4345 29.4499 85.7418 29.5119 86.0569 29.5119C86.6301 29.5119 87.1337 29.2614 87.5675 28.7605C88.0065 28.2543 88.226 27.5364 88.226 26.6068C88.226 25.6514 88.0065 24.8999 87.5675 24.3525C87.2422 23.9393 86.8187 23.7327 86.297 23.7327C85.9562 23.7327 85.6179 23.836 85.2822 24.0426C84.9465 24.2492 84.6986 24.5177 84.5385 24.8483C84.3784 25.1736 84.2932 25.5842 84.2828 26.08L84.2673 28.7605ZM95.8954 18.9916H96.3835C97.0807 20.7837 97.9381 22.816 98.9555 25.0884L100.761 29.0316C100.843 29.171 100.934 29.2743 101.032 29.3415C101.099 29.388 101.478 29.5119 102.17 29.7133V30.1704C101.23 30.1136 100.538 30.0852 100.094 30.0852C99.6398 30.0852 98.8651 30.1136 97.7702 30.1704V29.7133C98.3951 29.5842 98.7592 29.4809 98.8625 29.4034C98.9658 29.326 99.0175 29.2356 99.0175 29.1323C99.0175 29.0238 98.9632 28.8405 98.8548 28.5823L98.0801 26.692C96.98 26.6817 96.1795 26.6765 95.6785 26.6765L93.5481 26.692L92.7425 28.652C92.6082 28.967 92.541 29.1633 92.541 29.2408C92.541 29.3079 92.572 29.3647 92.634 29.4112C92.7011 29.4525 93.0033 29.53 93.5404 29.6436C93.5972 29.6591 93.6773 29.6823 93.7805 29.7133V30.1704C92.8974 30.1136 92.2751 30.0852 91.9135 30.0852C91.4539 30.0852 90.8651 30.1136 90.1472 30.1704V29.7133C90.6172 29.61 90.94 29.4938 91.1156 29.3647C91.2447 29.2666 91.379 29.1013 91.5184 28.8689C91.8128 28.3576 92.5617 26.7127 93.7651 23.9341L95.8954 18.9916ZM93.8503 25.9173C94.5681 25.938 95.082 25.9483 95.3919 25.9483C95.4849 25.9483 96.2776 25.938 97.7702 25.9173L95.8102 21.2692L93.8503 25.9173ZM106.919 20.2234V19.7973C107.477 19.6372 107.882 19.5081 108.136 19.4099C108.389 19.3066 108.817 19.0975 109.422 18.7824L109.615 18.9374C109.502 20.1356 109.445 22.3667 109.445 25.6307C109.445 27.4383 109.468 28.4454 109.515 28.652C109.561 28.8586 109.716 28.9619 109.979 28.9619C110.134 28.9619 110.408 28.9283 110.8 28.8612V29.2795C109.721 29.5997 108.884 29.9328 108.291 30.2788L108.097 30.1317C108.159 29.7443 108.198 29.357 108.213 28.9696C107.567 29.5532 107.092 29.9173 106.788 30.0619C106.488 30.2065 106.129 30.2788 105.711 30.2788C104.921 30.2788 104.265 29.9845 103.743 29.3957C103.227 28.8018 102.968 27.9625 102.968 26.878C102.968 26.1343 103.095 25.4938 103.348 24.9567C103.539 24.5436 103.815 24.1536 104.177 23.7869C104.538 23.4151 104.941 23.1207 105.385 22.9038C105.835 22.6817 106.284 22.5707 106.733 22.5707C106.94 22.5707 107.17 22.5965 107.423 22.6481C107.676 22.6998 107.952 22.7773 108.252 22.8806C108.262 22.6223 108.267 22.4725 108.267 22.4312C108.267 21.2175 108.244 20.5462 108.198 20.417C108.136 20.2259 107.965 20.1304 107.686 20.1304C107.593 20.1304 107.428 20.1485 107.19 20.1846C107.128 20.195 107.038 20.2079 106.919 20.2234ZM108.252 26.2272C108.252 25.2098 108.229 24.621 108.182 24.4609C108.094 24.151 107.89 23.8902 107.57 23.6785C107.255 23.4616 106.862 23.3531 106.393 23.3531C105.804 23.3531 105.303 23.5984 104.89 24.0891C104.476 24.5745 104.27 25.2898 104.27 26.235C104.27 27.2059 104.479 27.947 104.897 28.4583C105.316 28.9645 105.817 29.2175 106.4 29.2175C106.788 29.2175 107.141 29.1065 107.462 28.8844C107.782 28.6623 107.994 28.3938 108.097 28.0787C108.2 27.7637 108.252 27.1465 108.252 26.2272Z" fill="#454545"/>
<defs>
<linearGradient id="paint0_linear_1_277" x1="48.4984" y1="23.6052" x2="17.6513" y2="23.6052" gradientUnits="userSpaceOnUse">
<stop offset="0.277827" stop-color="#1572B9"/>
<stop offset="1" stop-color="#0995C8"/>
</linearGradient>
<linearGradient id="paint1_linear_1_277" x1="48.4984" y1="23.6052" x2="17.6513" y2="23.6052" gradientUnits="userSpaceOnUse">
<stop offset="0.277827" stop-color="#1572B9"/>
<stop offset="1" stop-color="#0995C8"/>
</linearGradient>
<linearGradient id="paint2_linear_1_277" x1="-3.49638" y1="21.4624" x2="25.7153" y2="35.3352" gradientUnits="userSpaceOnUse">
<stop stop-color="#E27127"/>
<stop offset="1" stop-color="#EDAA26"/>
</linearGradient>
<linearGradient id="paint3_linear_1_277" x1="45.0584" y1="3.10181" x2="38.5732" y2="8.23359" gradientUnits="userSpaceOnUse">
<stop stop-color="#ECA426"/>
<stop offset="1" stop-color="#F16323"/>
</linearGradient>
</defs>
</svg>
