<svg width="213" height="252" viewBox="0 0 213 252" fill="none" xmlns="http://www.w3.org/2000/svg">
<path fill-rule="evenodd" clip-rule="evenodd" d="M166.829 14.9902C161.898 13.1402 154.244 13.3311 147.656 15.4679C145.614 14.4859 143.452 15.9994 143.08 19.8942C143.08 20.9721 147.039 20.9064 150.762 20.2963C167.168 17.6084 178.122 30.1454 173.589 46.4222C172.012 52.0862 172.086 52.8162 174.407 54.5427L178.91 54.7007L178.551 52.5818C185.274 36.3095 180.191 20.0043 166.829 14.9902Z" fill="#F16323"/>
<path d="M67.563 32.6729C82.6975 17.8275 122.264 15.0168 131.993 16.314C127.236 12.8823 117.549 9.48929 117.549 9.48929C110.625 2.56566 99.3998 2.56566 92.4762 9.48929L67.563 32.6729Z" fill="#346798"/>
<path d="M133.29 17.855C133.939 20.4495 128.493 38.611 125.393 40.4503C123.251 40.1825 120.773 40.0486 117.961 40.0486C115.283 40.0486 111.935 40.3164 107.918 40.8521C104.035 41.3877 99.9509 42.2581 95.6658 43.4632C91.5147 44.5345 88.1001 46.2753 85.422 48.6856C82.7439 51.0959 81.4048 54.0419 81.4048 57.5234C81.4048 60.8711 83.4134 63.884 87.4306 66.5621C91.5817 69.1064 96.5362 71.5167 102.294 73.7931C108.052 75.9356 113.81 78.4129 119.568 81.2249C125.46 84.0369 130.415 88.1881 134.432 93.6782C138.583 99.0345 140.658 105.529 140.658 113.162C140.658 126.686 134.164 138.202 121.175 147.71C109.027 156.567 93.83 161.24 75.5836 161.727L92.6924 178.836C99.6161 185.76 110.841 185.76 117.765 178.836L190.537 106.064C197.461 99.1406 197.461 87.9151 190.537 80.9915L133.29 17.855Z" fill="#346798"/>
<path d="M22.812 72.7755C15.8884 79.6992 15.8884 90.9246 22.812 97.8482L46.5911 131.58L51.3643 126.401C51.4153 115.562 51.68 108.946 52.1586 106.553C52.5604 105.347 54.9037 103.874 59.1887 102.134C63.4738 100.393 67.6249 99.5224 71.6421 99.5224C71.6421 115.323 73.3159 124.898 76.6636 128.245C78.0026 129.584 80.5469 130.254 84.2962 130.254C92.8663 130.254 100.298 127.844 106.592 123.023C113.019 118.202 116.233 112.511 116.233 105.95C116.233 101.531 114.157 97.6478 110.006 94.3001C105.855 90.9524 100.767 88.0734 94.7409 85.6631C88.8491 83.1189 82.9572 80.5077 77.0653 77.8296C71.1734 75.0175 66.1519 71.2012 62.0008 66.3806C57.8497 61.5599 55.7741 55.8689 55.7741 49.3075C55.7741 44.5706 57.1419 40.0381 59.8776 35.71L22.812 72.7755Z" fill="#F16323"/>
<path d="M72.3926 28.3762C72.6719 28.1777 72.9548 27.9796 73.2412 27.7821C85.025 19.6138 102.031 15.5297 124.26 15.5297C127.518 15.5297 129.891 15.66 131.377 15.9207L120.649 5.19266C113.725 -1.73097 102.5 -1.73097 95.5761 5.19266L72.3926 28.3762Z" fill="url(#paint0_linear_1_30)"/>
<path d="M133.261 17.8048C133.286 18.2735 133.298 18.8542 133.298 19.5469C133.298 21.0198 132.83 23.9658 131.892 28.3847C130.955 32.8036 129.75 35.8165 128.277 37.4234C126.134 37.1556 123.657 37.0217 120.845 37.0217C118.167 37.0217 114.819 37.2895 110.802 37.8251C106.919 38.3608 102.835 39.2311 98.5495 40.4363C94.3984 41.5075 90.9838 43.2483 88.3057 45.6587C85.6275 48.069 84.2885 51.0149 84.2885 54.4965C84.2885 57.8442 86.2971 60.8571 90.3143 63.5352C94.4654 66.0794 99.4199 68.4897 105.178 70.7662C110.936 72.9087 116.694 75.3859 122.452 78.198C128.344 81.01 133.298 85.1611 137.315 90.6513C141.467 96.0076 143.542 102.502 143.542 110.135C143.542 123.659 137.048 135.175 124.059 144.683C111.911 153.54 96.7137 158.213 78.4673 158.7L95.5761 175.809C102.5 182.733 113.725 182.733 120.649 175.809L193.421 103.037C200.344 96.1136 200.344 84.8882 193.421 77.9646L133.261 17.8048Z" fill="url(#paint1_linear_1_30)"/>
<path d="M18.055 77.9645C11.1314 84.8881 11.1314 96.1136 18.055 103.037L46.6074 131.59C46.6583 120.751 46.9231 114.135 47.4017 111.742C47.8034 110.536 50.1468 109.063 54.4318 107.323C58.7168 105.582 62.8679 104.711 66.8851 104.711C66.8851 120.512 68.5589 130.087 71.9066 133.434C73.2457 134.773 75.7899 135.443 79.5393 135.443C88.1093 135.443 95.5411 133.033 101.835 128.212C108.262 123.391 111.476 117.7 111.476 111.139C111.476 106.72 109.4 102.837 105.249 99.4891C101.098 96.1414 96.0098 93.2624 89.984 90.8521C84.0921 88.3079 78.2002 85.6967 72.3083 83.0186C66.4164 80.2065 61.3949 76.3902 57.2438 71.5695C53.0927 66.7489 51.0172 61.0579 51.0172 54.4964C51.0172 49.7596 52.385 45.2271 55.1206 40.8989L18.055 77.9645Z" fill="url(#paint2_linear_1_30)"/>
<path fill-rule="evenodd" clip-rule="evenodd" d="M168.78 13.2604C163.85 11.4104 156.196 11.6013 149.607 13.7381C144.073 15.5328 143.223 16.3563 145.031 18.1644C145.881 19.0142 148.99 19.1767 152.713 18.5665C169.119 15.8787 180.073 28.4157 175.541 44.6925C173.963 50.3564 174.037 51.0864 176.358 52.8129L178.908 54.7101L180.502 50.852C187.226 34.5797 182.142 18.2745 168.78 13.2604Z" fill="url(#paint3_linear_1_30)"/>
<path d="M28.3052 206.709H26.0479C25.5331 204.174 24.949 202.323 24.2955 201.155C23.6421 199.987 22.6422 199.076 21.2957 198.422C19.9691 197.749 18.4741 197.412 16.8108 197.412C14.4546 197.412 12.5735 198.066 11.1676 199.373C9.78157 200.68 9.08855 202.264 9.08855 204.125C9.08855 205.768 9.66277 207.204 10.8112 208.432C11.9399 209.659 14.6922 211.214 19.0681 213.095C23.4639 214.976 26.4538 216.916 28.0379 218.916C29.6021 220.936 30.3843 223.203 30.3843 225.718C30.3843 227.975 29.7902 230.074 28.6022 232.014C27.4339 233.955 25.6618 235.509 23.2857 236.677C20.9294 237.826 18.385 238.4 15.6525 238.4C13.7912 238.4 11.9201 238.222 10.039 237.865C8.17771 237.509 5.94023 236.895 3.32653 236.024C3.60374 233.232 3.74234 229.529 3.74234 224.916H6.02933C6.68276 227.886 7.35598 229.965 8.04901 231.153C8.76184 232.341 9.83108 233.321 11.2567 234.093C12.6824 234.846 14.2466 235.222 15.9495 235.222C18.286 235.222 20.3354 234.569 22.0976 233.262C23.8599 231.955 24.741 230.123 24.741 227.767C24.741 225.846 24.1074 224.143 22.8402 222.658C21.5531 221.193 18.7612 219.54 14.4645 217.698C10.1875 215.837 7.32628 214.055 5.88082 212.352C4.43537 210.669 3.71264 208.659 3.71264 206.323C3.71264 204.283 4.29676 202.343 5.46501 200.501C6.63325 198.64 8.34602 197.175 10.6033 196.106C12.8804 195.017 15.2367 194.472 17.6722 194.472C20.6027 194.472 24.147 195.175 28.3052 196.581C28.2062 199.472 28.1567 201.214 28.1567 201.808C28.1567 203.016 28.2062 204.65 28.3052 206.709ZM34.3642 199.313V197.591C36.9779 196.818 38.9085 196.185 40.1559 195.69C41.4034 195.195 42.6508 194.581 43.8983 193.848L44.6408 194.294C44.4626 195.858 44.3339 197.917 44.2547 200.472C44.0765 205.758 43.9874 209.402 43.9874 211.402C43.9874 211.976 43.9973 212.956 44.0171 214.342L47.9079 210.57C48.6604 209.936 49.4425 209.471 50.2543 209.174C51.383 208.778 52.5611 208.58 53.7888 208.58C56.0658 208.58 57.8776 209.154 59.2241 210.303C60.5705 211.451 61.3625 213.045 61.6002 215.085C61.7388 216.253 61.8081 221.767 61.8081 231.628C61.8081 233.153 61.9566 234.093 62.2536 234.45C62.5704 234.806 63.6792 235.202 65.5801 235.638C65.7979 235.677 66.1048 235.747 66.5008 235.846V237.509C62.9565 237.291 60.4418 237.182 58.9568 237.182C57.0163 237.182 54.7392 237.291 52.1255 237.509V235.846L55.7193 234.747C55.9371 234.648 56.1252 234.489 56.2837 234.272C56.4619 234.054 56.5906 233.697 56.6698 233.202C56.749 232.826 56.7985 231.757 56.8183 229.995L57.0262 221.441C57.0262 218.669 56.848 216.817 56.4916 215.887C56.1549 214.936 55.551 214.174 54.6798 213.6C53.8284 213.006 52.8482 212.709 51.7394 212.709C50.2543 212.709 48.8584 213.154 47.5515 214.045C46.2447 214.916 45.3338 216.025 44.819 217.372C44.324 218.698 44.0765 220.975 44.0765 224.203C44.0765 228.678 44.1656 231.549 44.3438 232.816C44.4626 233.668 44.6507 234.212 44.9081 234.45C45.1853 234.687 46.2348 235.054 48.0564 235.549C48.2742 235.608 48.6109 235.707 49.0663 235.846V237.509C46.1556 237.291 43.7597 237.182 41.8786 237.182C39.9381 237.182 37.5521 237.291 34.7206 237.509V235.846C35.1364 235.727 35.4533 235.638 35.6711 235.578C37.4531 235.103 38.463 234.737 38.7006 234.479C38.958 234.222 39.1263 233.341 39.2055 231.836C39.3441 229.361 39.4134 224.549 39.4134 217.401C39.4134 206.412 39.2748 200.6 38.9976 199.967C38.7204 199.333 38.1264 199.016 37.2155 199.016C36.6413 199.016 35.6909 199.115 34.3642 199.313ZM69.4116 223.639C69.4116 218.847 70.7679 215.055 73.4806 212.263C76.1933 209.471 79.7574 208.075 84.173 208.075C88.351 208.075 91.6577 209.332 94.0932 211.847C96.5485 214.362 97.7761 217.877 97.7761 222.391C97.7761 227.262 96.4 231.123 93.6477 233.975C90.9152 236.806 87.3708 238.222 83.0147 238.222C78.7971 238.222 75.4706 236.955 73.0351 234.42C70.6194 231.886 69.4116 228.292 69.4116 223.639ZM75.1142 221.055C75.1142 224.302 75.3221 226.698 75.7379 228.242C76.3913 230.737 77.421 232.618 78.8268 233.885C80.2525 235.133 81.9058 235.757 83.7869 235.757C86.2224 235.757 88.2223 234.836 89.7865 232.994C91.3508 231.133 92.1329 228.153 92.1329 224.054C92.1329 219.461 91.2419 216.065 89.4598 213.867C87.6976 211.649 85.6185 210.54 83.2226 210.54C80.8465 210.54 78.8961 211.412 77.3715 213.154C75.8666 214.877 75.1142 217.51 75.1142 221.055ZM100.479 213.837V212.174C104.578 210.986 107.686 209.738 109.805 208.432L110.785 209.026C110.508 210.748 110.33 212.639 110.251 214.698C112.765 211.827 114.656 210.006 115.924 209.233C116.874 208.659 118.102 208.372 119.606 208.372C122.755 208.372 125.329 209.471 127.329 211.669C129.348 213.847 130.358 216.956 130.358 220.995C130.358 224.262 129.685 227.143 128.339 229.638C126.992 232.113 125.071 234.133 122.577 235.697C120.101 237.261 117.725 238.044 115.448 238.044C114.716 238.044 113.904 237.935 113.013 237.717C112.142 237.499 111.201 237.182 110.191 236.766C110.251 242.033 110.34 245.132 110.459 246.063C110.538 246.578 110.726 246.954 111.023 247.192C111.32 247.449 112.458 247.815 114.438 248.29C114.716 248.35 115.132 248.459 115.686 248.617V250.251C112.617 250.033 110.211 249.924 108.469 249.924C107.063 249.924 104.34 250.033 100.301 250.251V248.617L101.726 248.261C103.429 247.885 104.459 247.498 104.815 247.102C105.172 246.706 105.38 245.914 105.439 244.726C105.479 243.934 105.498 239.36 105.498 231.004L105.409 218.678L105.439 217.698C105.439 215.718 105.291 214.491 104.994 214.015C104.815 213.718 104.459 213.57 103.924 213.57C103.35 213.57 102.202 213.659 100.479 213.837ZM110.102 232.103C111.191 233.054 112.3 233.777 113.429 234.272C114.577 234.747 115.755 234.984 116.963 234.984C119.161 234.984 121.092 234.024 122.755 232.103C124.438 230.163 125.279 227.411 125.279 223.846C125.279 220.183 124.438 217.302 122.755 215.203C121.507 213.619 119.884 212.827 117.884 212.827C116.577 212.827 115.28 213.223 113.993 214.015C112.706 214.807 111.755 215.837 111.142 217.104C110.528 218.352 110.201 219.926 110.162 221.827L110.102 232.103ZM154.684 194.65H156.555C159.228 201.521 162.515 209.313 166.415 218.025L173.336 233.143C173.653 233.678 173.999 234.074 174.375 234.331C174.633 234.509 176.088 234.984 178.741 235.757V237.509C175.138 237.291 172.484 237.182 170.782 237.182C169.039 237.182 166.069 237.291 161.871 237.509V235.757C164.267 235.262 165.663 234.866 166.059 234.569C166.455 234.272 166.653 233.925 166.653 233.529C166.653 233.113 166.445 232.41 166.029 231.42L163.059 224.173C158.842 224.134 155.773 224.114 153.852 224.114L145.684 224.173L142.595 231.688C142.08 232.895 141.823 233.648 141.823 233.945C141.823 234.202 141.942 234.42 142.179 234.598C142.437 234.757 143.595 235.054 145.654 235.489C145.872 235.549 146.179 235.638 146.575 235.757V237.509C143.189 237.291 140.803 237.182 139.417 237.182C137.655 237.182 135.398 237.291 132.645 237.509V235.757C134.447 235.361 135.685 234.915 136.358 234.42C136.853 234.044 137.368 233.41 137.902 232.519C139.031 230.559 141.902 224.252 146.516 213.6L154.684 194.65ZM146.842 221.203C149.595 221.282 151.565 221.322 152.753 221.322C153.109 221.322 156.149 221.282 161.871 221.203L154.357 203.382L146.842 221.203ZM196.948 199.373V197.739C199.087 197.125 200.641 196.63 201.611 196.254C202.582 195.858 204.225 195.056 206.542 193.848L207.284 194.442C206.849 199.036 206.631 207.59 206.631 220.104C206.631 227.034 206.72 230.896 206.898 231.688C207.076 232.48 207.67 232.876 208.68 232.876C209.274 232.876 210.324 232.747 211.828 232.489V234.093C207.69 235.321 204.482 236.598 202.205 237.925L201.463 237.36C201.7 235.875 201.849 234.39 201.908 232.905C199.433 235.143 197.612 236.539 196.443 237.093C195.295 237.648 193.919 237.925 192.315 237.925C189.285 237.925 186.771 236.796 184.771 234.539C182.791 232.262 181.801 229.044 181.801 224.886C181.801 222.035 182.286 219.579 183.256 217.52C183.989 215.936 185.048 214.441 186.434 213.035C187.82 211.61 189.365 210.481 191.067 209.649C192.79 208.798 194.513 208.372 196.235 208.372C197.027 208.372 197.909 208.471 198.879 208.669C199.849 208.867 200.908 209.164 202.057 209.56C202.096 208.57 202.116 207.996 202.116 207.838C202.116 203.184 202.027 200.61 201.849 200.115C201.611 199.383 200.958 199.016 199.889 199.016C199.532 199.016 198.899 199.086 197.988 199.224C197.75 199.264 197.404 199.313 196.948 199.373ZM202.057 222.391C202.057 218.49 201.968 216.233 201.79 215.619C201.453 214.431 200.671 213.431 199.443 212.619C198.235 211.788 196.73 211.372 194.929 211.372C192.671 211.372 190.751 212.312 189.167 214.194C187.582 216.055 186.79 218.797 186.79 222.421C186.79 226.143 187.592 228.985 189.196 230.945C190.8 232.885 192.721 233.856 194.958 233.856C196.443 233.856 197.8 233.43 199.027 232.579C200.255 231.727 201.067 230.698 201.463 229.49C201.859 228.282 202.057 225.916 202.057 222.391Z" fill="#454545"/>
<defs>
<linearGradient id="paint0_linear_1_30" x1="198.801" y1="90.5009" x2="80.5355" y2="90.5009" gradientUnits="userSpaceOnUse">
<stop offset="0.277827" stop-color="#1572B9"/>
<stop offset="1" stop-color="#0995C8"/>
</linearGradient>
<linearGradient id="paint1_linear_1_30" x1="198.801" y1="90.5009" x2="80.5355" y2="90.5009" gradientUnits="userSpaceOnUse">
<stop offset="0.277827" stop-color="#1572B9"/>
<stop offset="1" stop-color="#0995C8"/>
</linearGradient>
<linearGradient id="paint2_linear_1_30" x1="-0.542596" y1="82.285" x2="111.453" y2="135.472" gradientUnits="userSpaceOnUse">
<stop stop-color="#E27127"/>
<stop offset="1" stop-color="#EDAA26"/>
</linearGradient>
<linearGradient id="paint3_linear_1_30" x1="185.613" y1="11.8914" x2="160.749" y2="31.5663" gradientUnits="userSpaceOnUse">
<stop stop-color="#ECA426"/>
<stop offset="1" stop-color="#F16323"/>
</linearGradient>
</defs>
</svg>
